<?xml version="1.0" encoding="utf-8" standalone="no"?>
<!DOCTYPE svg PUBLIC "-//W3C//DTD SVG 1.1//EN"
  "http://www.w3.org/Graphics/SVG/1.1/DTD/svg11.dtd">
<svg xmlns:xlink="http://www.w3.org/1999/xlink" width="434.124609pt" height="336.670242pt" viewBox="0 0 434.124609 336.670242" xmlns="http://www.w3.org/2000/svg" version="1.1">
 <metadata>
  <rdf:RDF xmlns:dc="http://purl.org/dc/elements/1.1/" xmlns:cc="http://creativecommons.org/ns#" xmlns:rdf="http://www.w3.org/1999/02/22-rdf-syntax-ns#">
   <cc:Work>
    <dc:type rdf:resource="http://purl.org/dc/dcmitype/StillImage"/>
    <dc:date>2025-10-08T09:39:30.558729</dc:date>
    <dc:format>image/svg+xml</dc:format>
    <dc:creator>
     <cc:Agent>
      <dc:title>Matplotlib v3.10.6, https://matplotlib.org/</dc:title>
     </cc:Agent>
    </dc:creator>
   </cc:Work>
  </rdf:RDF>
 </metadata>
 <defs>
  <style type="text/css">*{stroke-linejoin: round; stroke-linecap: butt}</style>
 </defs>
 <g id="figure_1">
  <g id="patch_1">
   <path d="M 0 336.670242 
L 434.124609 336.670242 
L 434.124609 0 
L 0 0 
z
" style="fill: #ffffff"/>
  </g>
  <g id="axes_1">
   <g id="patch_2">
    <path d="M 69.804609 279.580711 
L 426.924609 279.580711 
L 426.924609 13.468711 
L 69.804609 13.468711 
z
" style="fill: #ffffff"/>
   </g>
   <g id="matplotlib.axis_1">
    <g id="xtick_1">
     <g id="line2d_1">
      <defs>
       <path id="m1a615f047a" d="M 0 0 
L 0 9 
" style="stroke: #262626; stroke-width: 1.875"/>
      </defs>
      <g>
       <use xlink:href="#m1a615f047a" x="69.804609" y="279.580711" style="fill: #262626; stroke: #262626; stroke-width: 1.875"/>
      </g>
     </g>
     <g id="text_1">
      <!-- 0 -->
      <g style="fill: #262626" transform="translate(64.555547 304.618133) scale(0.165 -0.165)">
       <defs>
        <path id="DejaVuSans-30" d="M 2034 4250 
Q 1547 4250 1301 3770 
Q 1056 3291 1056 2328 
Q 1056 1369 1301 889 
Q 1547 409 2034 409 
Q 2525 409 2770 889 
Q 3016 1369 3016 2328 
Q 3016 3291 2770 3770 
Q 2525 4250 2034 4250 
z
M 2034 4750 
Q 2819 4750 3233 4129 
Q 3647 3509 3647 2328 
Q 3647 1150 3233 529 
Q 2819 -91 2034 -91 
Q 1250 -91 836 529 
Q 422 1150 422 2328 
Q 422 3509 836 4129 
Q 1250 4750 2034 4750 
z
" transform="scale(0.015625)"/>
       </defs>
       <use xlink:href="#DejaVuSans-30"/>
      </g>
     </g>
    </g>
    <g id="xtick_2">
     <g id="line2d_2">
      <g>
       <use xlink:href="#m1a615f047a" x="126.642023" y="279.580711" style="fill: #262626; stroke: #262626; stroke-width: 1.875"/>
      </g>
     </g>
     <g id="text_2">
      <!-- 2 -->
      <g style="fill: #262626" transform="translate(121.39296 304.618133) scale(0.165 -0.165)">
       <defs>
        <path id="DejaVuSans-32" d="M 1228 531 
L 3431 531 
L 3431 0 
L 469 0 
L 469 531 
Q 828 903 1448 1529 
Q 2069 2156 2228 2338 
Q 2531 2678 2651 2914 
Q 2772 3150 2772 3378 
Q 2772 3750 2511 3984 
Q 2250 4219 1831 4219 
Q 1534 4219 1204 4116 
Q 875 4013 500 3803 
L 500 4441 
Q 881 4594 1212 4672 
Q 1544 4750 1819 4750 
Q 2544 4750 2975 4387 
Q 3406 4025 3406 3419 
Q 3406 3131 3298 2873 
Q 3191 2616 2906 2266 
Q 2828 2175 2409 1742 
Q 1991 1309 1228 531 
z
" transform="scale(0.015625)"/>
       </defs>
       <use xlink:href="#DejaVuSans-32"/>
      </g>
     </g>
    </g>
    <g id="xtick_3">
     <g id="line2d_3">
      <g>
       <use xlink:href="#m1a615f047a" x="183.479436" y="279.580711" style="fill: #262626; stroke: #262626; stroke-width: 1.875"/>
      </g>
     </g>
     <g id="text_3">
      <!-- 4 -->
      <g style="fill: #262626" transform="translate(178.230373 304.618133) scale(0.165 -0.165)">
       <defs>
        <path id="DejaVuSans-34" d="M 2419 4116 
L 825 1625 
L 2419 1625 
L 2419 4116 
z
M 2253 4666 
L 3047 4666 
L 3047 1625 
L 3713 1625 
L 3713 1100 
L 3047 1100 
L 3047 0 
L 2419 0 
L 2419 1100 
L 313 1100 
L 313 1709 
L 2253 4666 
z
" transform="scale(0.015625)"/>
       </defs>
       <use xlink:href="#DejaVuSans-34"/>
      </g>
     </g>
    </g>
    <g id="xtick_4">
     <g id="line2d_4">
      <g>
       <use xlink:href="#m1a615f047a" x="240.316849" y="279.580711" style="fill: #262626; stroke: #262626; stroke-width: 1.875"/>
      </g>
     </g>
     <g id="text_4">
      <!-- 6 -->
      <g style="fill: #262626" transform="translate(235.067787 304.618133) scale(0.165 -0.165)">
       <defs>
        <path id="DejaVuSans-36" d="M 2113 2584 
Q 1688 2584 1439 2293 
Q 1191 2003 1191 1497 
Q 1191 994 1439 701 
Q 1688 409 2113 409 
Q 2538 409 2786 701 
Q 3034 994 3034 1497 
Q 3034 2003 2786 2293 
Q 2538 2584 2113 2584 
z
M 3366 4563 
L 3366 3988 
Q 3128 4100 2886 4159 
Q 2644 4219 2406 4219 
Q 1781 4219 1451 3797 
Q 1122 3375 1075 2522 
Q 1259 2794 1537 2939 
Q 1816 3084 2150 3084 
Q 2853 3084 3261 2657 
Q 3669 2231 3669 1497 
Q 3669 778 3244 343 
Q 2819 -91 2113 -91 
Q 1303 -91 875 529 
Q 447 1150 447 2328 
Q 447 3434 972 4092 
Q 1497 4750 2381 4750 
Q 2619 4750 2861 4703 
Q 3103 4656 3366 4563 
z
" transform="scale(0.015625)"/>
       </defs>
       <use xlink:href="#DejaVuSans-36"/>
      </g>
     </g>
    </g>
    <g id="xtick_5">
     <g id="line2d_5">
      <g>
       <use xlink:href="#m1a615f047a" x="297.154262" y="279.580711" style="fill: #262626; stroke: #262626; stroke-width: 1.875"/>
      </g>
     </g>
     <g id="text_5">
      <!-- 8 -->
      <g style="fill: #262626" transform="translate(291.9052 304.618133) scale(0.165 -0.165)">
       <defs>
        <path id="DejaVuSans-38" d="M 2034 2216 
Q 1584 2216 1326 1975 
Q 1069 1734 1069 1313 
Q 1069 891 1326 650 
Q 1584 409 2034 409 
Q 2484 409 2743 651 
Q 3003 894 3003 1313 
Q 3003 1734 2745 1975 
Q 2488 2216 2034 2216 
z
M 1403 2484 
Q 997 2584 770 2862 
Q 544 3141 544 3541 
Q 544 4100 942 4425 
Q 1341 4750 2034 4750 
Q 2731 4750 3128 4425 
Q 3525 4100 3525 3541 
Q 3525 3141 3298 2862 
Q 3072 2584 2669 2484 
Q 3125 2378 3379 2068 
Q 3634 1759 3634 1313 
Q 3634 634 3220 271 
Q 2806 -91 2034 -91 
Q 1263 -91 848 271 
Q 434 634 434 1313 
Q 434 1759 690 2068 
Q 947 2378 1403 2484 
z
M 1172 3481 
Q 1172 3119 1398 2916 
Q 1625 2713 2034 2713 
Q 2441 2713 2670 2916 
Q 2900 3119 2900 3481 
Q 2900 3844 2670 4047 
Q 2441 4250 2034 4250 
Q 1625 4250 1398 4047 
Q 1172 3844 1172 3481 
z
" transform="scale(0.015625)"/>
       </defs>
       <use xlink:href="#DejaVuSans-38"/>
      </g>
     </g>
    </g>
    <g id="xtick_6">
     <g id="line2d_6">
      <g>
       <use xlink:href="#m1a615f047a" x="353.991676" y="279.580711" style="fill: #262626; stroke: #262626; stroke-width: 1.875"/>
      </g>
     </g>
     <g id="text_6">
      <!-- 10 -->
      <g style="fill: #262626" transform="translate(343.493551 304.618133) scale(0.165 -0.165)">
       <defs>
        <path id="DejaVuSans-31" d="M 794 531 
L 1825 531 
L 1825 4091 
L 703 3866 
L 703 4441 
L 1819 4666 
L 2450 4666 
L 2450 531 
L 3481 531 
L 3481 0 
L 794 0 
L 794 531 
z
" transform="scale(0.015625)"/>
       </defs>
       <use xlink:href="#DejaVuSans-31"/>
       <use xlink:href="#DejaVuSans-30" transform="translate(63.623047 0)"/>
      </g>
     </g>
    </g>
    <g id="xtick_7">
     <g id="line2d_7">
      <g>
       <use xlink:href="#m1a615f047a" x="410.829089" y="279.580711" style="fill: #262626; stroke: #262626; stroke-width: 1.875"/>
      </g>
     </g>
     <g id="text_7">
      <!-- 12 -->
      <g style="fill: #262626" transform="translate(400.330964 304.618133) scale(0.165 -0.165)">
       <use xlink:href="#DejaVuSans-31"/>
       <use xlink:href="#DejaVuSans-32" transform="translate(63.623047 0)"/>
      </g>
     </g>
    </g>
    <g id="text_8">
     <!-- Time (ns) -->
     <g style="fill: #262626" transform="translate(206.068828 325.726805) scale(0.18 -0.18)">
      <defs>
       <path id="DejaVuSans-54" d="M -19 4666 
L 3928 4666 
L 3928 4134 
L 2272 4134 
L 2272 0 
L 1638 0 
L 1638 4134 
L -19 4134 
L -19 4666 
z
" transform="scale(0.015625)"/>
       <path id="DejaVuSans-69" d="M 603 3500 
L 1178 3500 
L 1178 0 
L 603 0 
L 603 3500 
z
M 603 4863 
L 1178 4863 
L 1178 4134 
L 603 4134 
L 603 4863 
z
" transform="scale(0.015625)"/>
       <path id="DejaVuSans-6d" d="M 3328 2828 
Q 3544 3216 3844 3400 
Q 4144 3584 4550 3584 
Q 5097 3584 5394 3201 
Q 5691 2819 5691 2113 
L 5691 0 
L 5113 0 
L 5113 2094 
Q 5113 2597 4934 2840 
Q 4756 3084 4391 3084 
Q 3944 3084 3684 2787 
Q 3425 2491 3425 1978 
L 3425 0 
L 2847 0 
L 2847 2094 
Q 2847 2600 2669 2842 
Q 2491 3084 2119 3084 
Q 1678 3084 1418 2786 
Q 1159 2488 1159 1978 
L 1159 0 
L 581 0 
L 581 3500 
L 1159 3500 
L 1159 2956 
Q 1356 3278 1631 3431 
Q 1906 3584 2284 3584 
Q 2666 3584 2933 3390 
Q 3200 3197 3328 2828 
z
" transform="scale(0.015625)"/>
       <path id="DejaVuSans-65" d="M 3597 1894 
L 3597 1613 
L 953 1613 
Q 991 1019 1311 708 
Q 1631 397 2203 397 
Q 2534 397 2845 478 
Q 3156 559 3463 722 
L 3463 178 
Q 3153 47 2828 -22 
Q 2503 -91 2169 -91 
Q 1331 -91 842 396 
Q 353 884 353 1716 
Q 353 2575 817 3079 
Q 1281 3584 2069 3584 
Q 2775 3584 3186 3129 
Q 3597 2675 3597 1894 
z
M 3022 2063 
Q 3016 2534 2758 2815 
Q 2500 3097 2075 3097 
Q 1594 3097 1305 2825 
Q 1016 2553 972 2059 
L 3022 2063 
z
" transform="scale(0.015625)"/>
       <path id="DejaVuSans-20" transform="scale(0.015625)"/>
       <path id="DejaVuSans-28" d="M 1984 4856 
Q 1566 4138 1362 3434 
Q 1159 2731 1159 2009 
Q 1159 1288 1364 580 
Q 1569 -128 1984 -844 
L 1484 -844 
Q 1016 -109 783 600 
Q 550 1309 550 2009 
Q 550 2706 781 3412 
Q 1013 4119 1484 4856 
L 1984 4856 
z
" transform="scale(0.015625)"/>
       <path id="DejaVuSans-6e" d="M 3513 2113 
L 3513 0 
L 2938 0 
L 2938 2094 
Q 2938 2591 2744 2837 
Q 2550 3084 2163 3084 
Q 1697 3084 1428 2787 
Q 1159 2491 1159 1978 
L 1159 0 
L 581 0 
L 581 3500 
L 1159 3500 
L 1159 2956 
Q 1366 3272 1645 3428 
Q 1925 3584 2291 3584 
Q 2894 3584 3203 3211 
Q 3513 2838 3513 2113 
z
" transform="scale(0.015625)"/>
       <path id="DejaVuSans-73" d="M 2834 3397 
L 2834 2853 
Q 2591 2978 2328 3040 
Q 2066 3103 1784 3103 
Q 1356 3103 1142 2972 
Q 928 2841 928 2578 
Q 928 2378 1081 2264 
Q 1234 2150 1697 2047 
L 1894 2003 
Q 2506 1872 2764 1633 
Q 3022 1394 3022 966 
Q 3022 478 2636 193 
Q 2250 -91 1575 -91 
Q 1294 -91 989 -36 
Q 684 19 347 128 
L 347 722 
Q 666 556 975 473 
Q 1284 391 1588 391 
Q 1994 391 2212 530 
Q 2431 669 2431 922 
Q 2431 1156 2273 1281 
Q 2116 1406 1581 1522 
L 1381 1569 
Q 847 1681 609 1914 
Q 372 2147 372 2553 
Q 372 3047 722 3315 
Q 1072 3584 1716 3584 
Q 2034 3584 2315 3537 
Q 2597 3491 2834 3397 
z
" transform="scale(0.015625)"/>
       <path id="DejaVuSans-29" d="M 513 4856 
L 1013 4856 
Q 1481 4119 1714 3412 
Q 1947 2706 1947 2009 
Q 1947 1309 1714 600 
Q 1481 -109 1013 -844 
L 513 -844 
Q 928 -128 1133 580 
Q 1338 1288 1338 2009 
Q 1338 2731 1133 3434 
Q 928 4138 513 4856 
z
" transform="scale(0.015625)"/>
      </defs>
      <use xlink:href="#DejaVuSans-54"/>
      <use xlink:href="#DejaVuSans-69" transform="translate(57.958984 0)"/>
      <use xlink:href="#DejaVuSans-6d" transform="translate(85.742188 0)"/>
      <use xlink:href="#DejaVuSans-65" transform="translate(183.154297 0)"/>
      <use xlink:href="#DejaVuSans-20" transform="translate(244.677734 0)"/>
      <use xlink:href="#DejaVuSans-28" transform="translate(276.464844 0)"/>
      <use xlink:href="#DejaVuSans-6e" transform="translate(315.478516 0)"/>
      <use xlink:href="#DejaVuSans-73" transform="translate(378.857422 0)"/>
      <use xlink:href="#DejaVuSans-29" transform="translate(430.957031 0)"/>
     </g>
    </g>
   </g>
   <g id="matplotlib.axis_2">
    <g id="ytick_1">
     <g id="line2d_8">
      <defs>
       <path id="mfade88b0d5" d="M 0 0 
L -9 0 
" style="stroke: #262626; stroke-width: 1.875"/>
      </defs>
      <g>
       <use xlink:href="#mfade88b0d5" x="69.804609" y="279.580711" style="fill: #262626; stroke: #262626; stroke-width: 1.875"/>
      </g>
     </g>
     <g id="text_9">
      <!-- −1 -->
      <g style="fill: #262626" transform="translate(32.98 285.849422) scale(0.165 -0.165)">
       <defs>
        <path id="DejaVuSans-2212" d="M 678 2272 
L 4684 2272 
L 4684 1741 
L 678 1741 
L 678 2272 
z
" transform="scale(0.015625)"/>
       </defs>
       <use xlink:href="#DejaVuSans-2212"/>
       <use xlink:href="#DejaVuSans-31" transform="translate(83.789062 0)"/>
      </g>
     </g>
    </g>
    <g id="ytick_2">
     <g id="line2d_9">
      <g>
       <use xlink:href="#mfade88b0d5" x="69.804609" y="146.524711" style="fill: #262626; stroke: #262626; stroke-width: 1.875"/>
      </g>
     </g>
     <g id="text_10">
      <!-- 0 -->
      <g style="fill: #262626" transform="translate(46.806484 152.793422) scale(0.165 -0.165)">
       <use xlink:href="#DejaVuSans-30"/>
      </g>
     </g>
    </g>
    <g id="ytick_3">
     <g id="line2d_10">
      <g>
       <use xlink:href="#mfade88b0d5" x="69.804609" y="13.468711" style="fill: #262626; stroke: #262626; stroke-width: 1.875"/>
      </g>
     </g>
     <g id="text_11">
      <!-- 1 -->
      <g style="fill: #262626" transform="translate(46.806484 19.737422) scale(0.165 -0.165)">
       <use xlink:href="#DejaVuSans-31"/>
      </g>
     </g>
    </g>
    <g id="text_12">
     <!-- $\langle \sigma_z\rangle$ -->
     <g style="fill: #262626" transform="translate(24.84 163.714711) rotate(-90) scale(0.18 -0.18)">
      <defs>
       <path id="Cmex10-ad" d="M 2272 -7347 
L 641 -3634 
Q 628 -3616 628 -3584 
Q 628 -3553 641 -3541 
L 2272 178 
Q 2303 256 2388 256 
Q 2434 256 2475 215 
Q 2516 175 2516 128 
Q 2516 97 2509 84 
L 897 -3584 
L 2509 -7250 
Q 2516 -7263 2516 -7297 
Q 2516 -7344 2475 -7384 
Q 2434 -7425 2388 -7425 
Q 2306 -7425 2272 -7347 
z
" transform="scale(0.015625)"/>
       <path id="Cmmi10-be" d="M 1197 -72 
Q 913 -72 692 64 
Q 472 200 351 431 
Q 231 663 231 941 
Q 231 1238 365 1566 
Q 500 1894 733 2166 
Q 966 2438 1259 2598 
Q 1553 2759 1863 2759 
L 3475 2759 
Q 3541 2759 3587 2715 
Q 3634 2672 3634 2597 
Q 3634 2503 3567 2433 
Q 3500 2363 3406 2363 
L 2625 2363 
Q 2809 2088 2809 1697 
Q 2809 1375 2684 1062 
Q 2559 750 2337 492 
Q 2116 234 1820 81 
Q 1525 -72 1197 -72 
z
M 1203 97 
Q 1553 97 1823 370 
Q 2094 644 2237 1039 
Q 2381 1434 2381 1772 
Q 2381 2047 2229 2205 
Q 2078 2363 1806 2363 
Q 1434 2363 1173 2113 
Q 913 1863 783 1484 
Q 653 1106 653 756 
Q 653 481 798 289 
Q 944 97 1203 97 
z
" transform="scale(0.015625)"/>
       <path id="Cmmi10-7a" d="M 313 -72 
Q 263 -72 263 -13 
Q 263 19 275 31 
Q 447 328 689 598 
Q 931 869 1239 1145 
Q 1547 1422 1858 1700 
Q 2169 1978 2363 2194 
L 2338 2194 
Q 2197 2194 1925 2284 
Q 1653 2375 1497 2375 
Q 1328 2375 1168 2301 
Q 1009 2228 966 2075 
Q 956 2028 916 2028 
L 838 2028 
Q 788 2028 788 2094 
L 788 2113 
Q 838 2300 952 2462 
Q 1066 2625 1233 2726 
Q 1400 2828 1581 2828 
Q 1709 2828 1793 2770 
Q 1878 2713 1990 2591 
Q 2103 2469 2173 2416 
Q 2244 2363 2350 2363 
Q 2491 2363 2602 2491 
Q 2713 2619 2822 2809 
Q 2841 2828 2869 2828 
L 2944 2828 
Q 2966 2828 2980 2812 
Q 2994 2797 2994 2772 
Q 2994 2750 2981 2731 
Q 2809 2434 2579 2176 
Q 2350 1919 1979 1586 
Q 1609 1253 1354 1023 
Q 1100 794 878 550 
Q 928 563 1013 563 
Q 1169 563 1439 473 
Q 1709 384 1856 384 
Q 2016 384 2178 453 
Q 2341 522 2459 647 
Q 2578 772 2619 934 
Q 2634 978 2669 978 
L 2747 978 
Q 2772 978 2787 958 
Q 2803 938 2803 916 
Q 2803 909 2797 897 
Q 2738 653 2591 433 
Q 2444 213 2230 70 
Q 2016 -72 1772 -72 
Q 1650 -72 1565 -15 
Q 1481 41 1367 164 
Q 1253 288 1181 342 
Q 1109 397 1006 397 
Q 688 397 434 -50 
Q 413 -72 391 -72 
L 313 -72 
z
" transform="scale(0.015625)"/>
       <path id="Cmex10-ae" d="M 500 -7297 
Q 500 -7263 513 -7250 
L 2119 -3584 
L 513 84 
Q 500 97 500 128 
Q 500 175 537 215 
Q 575 256 628 256 
Q 703 256 750 178 
L 2381 -3541 
Q 2388 -3553 2388 -3584 
Q 2388 -3616 2381 -3634 
L 750 -7347 
Q 700 -7425 628 -7425 
Q 575 -7425 537 -7384 
Q 500 -7344 500 -7297 
z
" transform="scale(0.015625)"/>
      </defs>
      <use xlink:href="#Cmex10-ad" transform="translate(0 94)"/>
      <use xlink:href="#Cmmi10-be" transform="translate(47.216797 0.658854)"/>
      <use xlink:href="#Cmmi10-7a" transform="translate(104.296875 -16.347396) scale(0.7)"/>
      <use xlink:href="#Cmex10-ae" transform="translate(143.213281 94)"/>
     </g>
    </g>
   </g>
   <g id="line2d_11">
    <path d="M 69.804609 277.179481 
L 73.379384 275.245353 
L 76.954159 275.438599 
L 80.528934 268.638622 
L 84.103708 257.221196 
L 87.678483 253.952006 
L 91.253258 252.585987 
L 94.828033 237.613604 
L 98.402808 219.264987 
L 101.977582 215.37722 
L 105.552357 212.466975 
L 109.127132 191.613787 
L 112.701907 169.490041 
L 116.276681 165.697976 
L 119.851456 161.58653 
L 123.426231 138.213189 
L 127.001006 115.983864 
L 130.575781 112.869172 
L 134.150555 108.210007 
L 137.72533 86.204076 
L 141.300105 67.426272 
L 144.87488 65.350967 
L 148.449654 61.021692 
L 152.024429 44.148707 
L 155.599204 31.68093 
L 159.173979 30.755063 
L 162.748754 27.711525 
L 166.323528 18.969218 
L 169.898303 14.523004 
L 173.473078 14.626249 
L 177.047853 13.720146 
L 180.622627 14.808089 
L 184.197402 18.70852 
L 187.772177 19.554017 
L 191.346952 21.347411 
L 194.921726 32.346882 
L 198.496501 43.534929 
L 202.071276 44.756462 
L 205.646051 49.371017 
L 209.220826 68.695302 
L 212.7956 84.962295 
L 216.370375 86.203382 
L 219.94515 93.239065 
L 223.519925 117.868519 
L 227.094699 136.273656 
L 230.669474 137.259393 
L 234.244249 145.806884 
L 237.819024 171.773695 
L 241.393799 189.166067 
L 244.968573 189.744733 
L 248.543348 198.499293 
L 252.118123 221.54284 
L 255.692898 235.094753 
L 259.267672 235.244531 
L 262.842447 242.709501 
L 266.417222 258.992194 
L 269.991997 266.652638 
L 273.566772 266.457306 
L 277.141546 271.206429 
L 280.716321 277.96776 
L 284.291096 278.762691 
L 287.865871 278.366829 
L 291.440645 279.320096 
L 295.01542 275.355671 
L 298.590195 269.491519 
L 302.16497 269.049345 
L 305.739745 265.710313 
L 309.314519 251.591555 
L 312.889294 240.354374 
L 316.464069 239.986151 
L 320.038844 232.591608 
L 323.613618 210.585794 
L 327.188393 196.06408 
L 330.763168 195.830472 
L 334.337943 185.376104 
L 337.912717 159.077789 
L 341.487492 143.765999 
L 345.062267 143.664908 
L 348.637042 131.791433 
L 352.211817 105.526272 
L 355.786591 91.883618 
L 359.361366 91.86749 
L 362.936141 80.617165 
L 366.510916 58.718741 
L 370.08569 48.76146 
L 373.660465 48.767483 
L 377.23524 40.24625 
L 380.810015 26.328933 
L 384.38479 21.323892 
L 387.959564 21.306308 
L 391.534339 17.307318 
L 395.109114 13.659273 
L 398.683889 13.965149 
L 402.258663 13.918775 
L 405.833438 15.574295 
L 409.408213 22.774339 
L 412.982988 27.848045 
L 416.557763 27.815043 
L 420.132537 35.343133 
L 423.707312 52.166718 
" clip-path="url(#p7dda0dccb7)" style="fill: none; stroke: #1f77b4; stroke-width: 2.25; stroke-linecap: round"/>
    <defs>
     <path id="m8f56eb066b" d="M -4.5 4.5 
L 4.5 -4.5 
M -4.5 -4.5 
L 4.5 4.5 
" style="stroke: #1f77b4"/>
    </defs>
    <g clip-path="url(#p7dda0dccb7)">
     <use xlink:href="#m8f56eb066b" x="69.804609" y="277.179481" style="fill: #1f77b4; stroke: #1f77b4"/>
     <use xlink:href="#m8f56eb066b" x="73.379384" y="275.245353" style="fill: #1f77b4; stroke: #1f77b4"/>
     <use xlink:href="#m8f56eb066b" x="76.954159" y="275.438599" style="fill: #1f77b4; stroke: #1f77b4"/>
     <use xlink:href="#m8f56eb066b" x="80.528934" y="268.638622" style="fill: #1f77b4; stroke: #1f77b4"/>
     <use xlink:href="#m8f56eb066b" x="84.103708" y="257.221196" style="fill: #1f77b4; stroke: #1f77b4"/>
     <use xlink:href="#m8f56eb066b" x="87.678483" y="253.952006" style="fill: #1f77b4; stroke: #1f77b4"/>
     <use xlink:href="#m8f56eb066b" x="91.253258" y="252.585987" style="fill: #1f77b4; stroke: #1f77b4"/>
     <use xlink:href="#m8f56eb066b" x="94.828033" y="237.613604" style="fill: #1f77b4; stroke: #1f77b4"/>
     <use xlink:href="#m8f56eb066b" x="98.402808" y="219.264987" style="fill: #1f77b4; stroke: #1f77b4"/>
     <use xlink:href="#m8f56eb066b" x="101.977582" y="215.37722" style="fill: #1f77b4; stroke: #1f77b4"/>
     <use xlink:href="#m8f56eb066b" x="105.552357" y="212.466975" style="fill: #1f77b4; stroke: #1f77b4"/>
     <use xlink:href="#m8f56eb066b" x="109.127132" y="191.613787" style="fill: #1f77b4; stroke: #1f77b4"/>
     <use xlink:href="#m8f56eb066b" x="112.701907" y="169.490041" style="fill: #1f77b4; stroke: #1f77b4"/>
     <use xlink:href="#m8f56eb066b" x="116.276681" y="165.697976" style="fill: #1f77b4; stroke: #1f77b4"/>
     <use xlink:href="#m8f56eb066b" x="119.851456" y="161.58653" style="fill: #1f77b4; stroke: #1f77b4"/>
     <use xlink:href="#m8f56eb066b" x="123.426231" y="138.213189" style="fill: #1f77b4; stroke: #1f77b4"/>
     <use xlink:href="#m8f56eb066b" x="127.001006" y="115.983864" style="fill: #1f77b4; stroke: #1f77b4"/>
     <use xlink:href="#m8f56eb066b" x="130.575781" y="112.869172" style="fill: #1f77b4; stroke: #1f77b4"/>
     <use xlink:href="#m8f56eb066b" x="134.150555" y="108.210007" style="fill: #1f77b4; stroke: #1f77b4"/>
     <use xlink:href="#m8f56eb066b" x="137.72533" y="86.204076" style="fill: #1f77b4; stroke: #1f77b4"/>
     <use xlink:href="#m8f56eb066b" x="141.300105" y="67.426272" style="fill: #1f77b4; stroke: #1f77b4"/>
     <use xlink:href="#m8f56eb066b" x="144.87488" y="65.350967" style="fill: #1f77b4; stroke: #1f77b4"/>
     <use xlink:href="#m8f56eb066b" x="148.449654" y="61.021692" style="fill: #1f77b4; stroke: #1f77b4"/>
     <use xlink:href="#m8f56eb066b" x="152.024429" y="44.148707" style="fill: #1f77b4; stroke: #1f77b4"/>
     <use xlink:href="#m8f56eb066b" x="155.599204" y="31.68093" style="fill: #1f77b4; stroke: #1f77b4"/>
     <use xlink:href="#m8f56eb066b" x="159.173979" y="30.755063" style="fill: #1f77b4; stroke: #1f77b4"/>
     <use xlink:href="#m8f56eb066b" x="162.748754" y="27.711525" style="fill: #1f77b4; stroke: #1f77b4"/>
     <use xlink:href="#m8f56eb066b" x="166.323528" y="18.969218" style="fill: #1f77b4; stroke: #1f77b4"/>
     <use xlink:href="#m8f56eb066b" x="169.898303" y="14.523004" style="fill: #1f77b4; stroke: #1f77b4"/>
     <use xlink:href="#m8f56eb066b" x="173.473078" y="14.626249" style="fill: #1f77b4; stroke: #1f77b4"/>
     <use xlink:href="#m8f56eb066b" x="177.047853" y="13.720146" style="fill: #1f77b4; stroke: #1f77b4"/>
     <use xlink:href="#m8f56eb066b" x="180.622627" y="14.808089" style="fill: #1f77b4; stroke: #1f77b4"/>
     <use xlink:href="#m8f56eb066b" x="184.197402" y="18.70852" style="fill: #1f77b4; stroke: #1f77b4"/>
     <use xlink:href="#m8f56eb066b" x="187.772177" y="19.554017" style="fill: #1f77b4; stroke: #1f77b4"/>
     <use xlink:href="#m8f56eb066b" x="191.346952" y="21.347411" style="fill: #1f77b4; stroke: #1f77b4"/>
     <use xlink:href="#m8f56eb066b" x="194.921726" y="32.346882" style="fill: #1f77b4; stroke: #1f77b4"/>
     <use xlink:href="#m8f56eb066b" x="198.496501" y="43.534929" style="fill: #1f77b4; stroke: #1f77b4"/>
     <use xlink:href="#m8f56eb066b" x="202.071276" y="44.756462" style="fill: #1f77b4; stroke: #1f77b4"/>
     <use xlink:href="#m8f56eb066b" x="205.646051" y="49.371017" style="fill: #1f77b4; stroke: #1f77b4"/>
     <use xlink:href="#m8f56eb066b" x="209.220826" y="68.695302" style="fill: #1f77b4; stroke: #1f77b4"/>
     <use xlink:href="#m8f56eb066b" x="212.7956" y="84.962295" style="fill: #1f77b4; stroke: #1f77b4"/>
     <use xlink:href="#m8f56eb066b" x="216.370375" y="86.203382" style="fill: #1f77b4; stroke: #1f77b4"/>
     <use xlink:href="#m8f56eb066b" x="219.94515" y="93.239065" style="fill: #1f77b4; stroke: #1f77b4"/>
     <use xlink:href="#m8f56eb066b" x="223.519925" y="117.868519" style="fill: #1f77b4; stroke: #1f77b4"/>
     <use xlink:href="#m8f56eb066b" x="227.094699" y="136.273656" style="fill: #1f77b4; stroke: #1f77b4"/>
     <use xlink:href="#m8f56eb066b" x="230.669474" y="137.259393" style="fill: #1f77b4; stroke: #1f77b4"/>
     <use xlink:href="#m8f56eb066b" x="234.244249" y="145.806884" style="fill: #1f77b4; stroke: #1f77b4"/>
     <use xlink:href="#m8f56eb066b" x="237.819024" y="171.773695" style="fill: #1f77b4; stroke: #1f77b4"/>
     <use xlink:href="#m8f56eb066b" x="241.393799" y="189.166067" style="fill: #1f77b4; stroke: #1f77b4"/>
     <use xlink:href="#m8f56eb066b" x="244.968573" y="189.744733" style="fill: #1f77b4; stroke: #1f77b4"/>
     <use xlink:href="#m8f56eb066b" x="248.543348" y="198.499293" style="fill: #1f77b4; stroke: #1f77b4"/>
     <use xlink:href="#m8f56eb066b" x="252.118123" y="221.54284" style="fill: #1f77b4; stroke: #1f77b4"/>
     <use xlink:href="#m8f56eb066b" x="255.692898" y="235.094753" style="fill: #1f77b4; stroke: #1f77b4"/>
     <use xlink:href="#m8f56eb066b" x="259.267672" y="235.244531" style="fill: #1f77b4; stroke: #1f77b4"/>
     <use xlink:href="#m8f56eb066b" x="262.842447" y="242.709501" style="fill: #1f77b4; stroke: #1f77b4"/>
     <use xlink:href="#m8f56eb066b" x="266.417222" y="258.992194" style="fill: #1f77b4; stroke: #1f77b4"/>
     <use xlink:href="#m8f56eb066b" x="269.991997" y="266.652638" style="fill: #1f77b4; stroke: #1f77b4"/>
     <use xlink:href="#m8f56eb066b" x="273.566772" y="266.457306" style="fill: #1f77b4; stroke: #1f77b4"/>
     <use xlink:href="#m8f56eb066b" x="277.141546" y="271.206429" style="fill: #1f77b4; stroke: #1f77b4"/>
     <use xlink:href="#m8f56eb066b" x="280.716321" y="277.96776" style="fill: #1f77b4; stroke: #1f77b4"/>
     <use xlink:href="#m8f56eb066b" x="284.291096" y="278.762691" style="fill: #1f77b4; stroke: #1f77b4"/>
     <use xlink:href="#m8f56eb066b" x="287.865871" y="278.366829" style="fill: #1f77b4; stroke: #1f77b4"/>
     <use xlink:href="#m8f56eb066b" x="291.440645" y="279.320096" style="fill: #1f77b4; stroke: #1f77b4"/>
     <use xlink:href="#m8f56eb066b" x="295.01542" y="275.355671" style="fill: #1f77b4; stroke: #1f77b4"/>
     <use xlink:href="#m8f56eb066b" x="298.590195" y="269.491519" style="fill: #1f77b4; stroke: #1f77b4"/>
     <use xlink:href="#m8f56eb066b" x="302.16497" y="269.049345" style="fill: #1f77b4; stroke: #1f77b4"/>
     <use xlink:href="#m8f56eb066b" x="305.739745" y="265.710313" style="fill: #1f77b4; stroke: #1f77b4"/>
     <use xlink:href="#m8f56eb066b" x="309.314519" y="251.591555" style="fill: #1f77b4; stroke: #1f77b4"/>
     <use xlink:href="#m8f56eb066b" x="312.889294" y="240.354374" style="fill: #1f77b4; stroke: #1f77b4"/>
     <use xlink:href="#m8f56eb066b" x="316.464069" y="239.986151" style="fill: #1f77b4; stroke: #1f77b4"/>
     <use xlink:href="#m8f56eb066b" x="320.038844" y="232.591608" style="fill: #1f77b4; stroke: #1f77b4"/>
     <use xlink:href="#m8f56eb066b" x="323.613618" y="210.585794" style="fill: #1f77b4; stroke: #1f77b4"/>
     <use xlink:href="#m8f56eb066b" x="327.188393" y="196.06408" style="fill: #1f77b4; stroke: #1f77b4"/>
     <use xlink:href="#m8f56eb066b" x="330.763168" y="195.830472" style="fill: #1f77b4; stroke: #1f77b4"/>
     <use xlink:href="#m8f56eb066b" x="334.337943" y="185.376104" style="fill: #1f77b4; stroke: #1f77b4"/>
     <use xlink:href="#m8f56eb066b" x="337.912717" y="159.077789" style="fill: #1f77b4; stroke: #1f77b4"/>
     <use xlink:href="#m8f56eb066b" x="341.487492" y="143.765999" style="fill: #1f77b4; stroke: #1f77b4"/>
     <use xlink:href="#m8f56eb066b" x="345.062267" y="143.664908" style="fill: #1f77b4; stroke: #1f77b4"/>
     <use xlink:href="#m8f56eb066b" x="348.637042" y="131.791433" style="fill: #1f77b4; stroke: #1f77b4"/>
     <use xlink:href="#m8f56eb066b" x="352.211817" y="105.526272" style="fill: #1f77b4; stroke: #1f77b4"/>
     <use xlink:href="#m8f56eb066b" x="355.786591" y="91.883618" style="fill: #1f77b4; stroke: #1f77b4"/>
     <use xlink:href="#m8f56eb066b" x="359.361366" y="91.86749" style="fill: #1f77b4; stroke: #1f77b4"/>
     <use xlink:href="#m8f56eb066b" x="362.936141" y="80.617165" style="fill: #1f77b4; stroke: #1f77b4"/>
     <use xlink:href="#m8f56eb066b" x="366.510916" y="58.718741" style="fill: #1f77b4; stroke: #1f77b4"/>
     <use xlink:href="#m8f56eb066b" x="370.08569" y="48.76146" style="fill: #1f77b4; stroke: #1f77b4"/>
     <use xlink:href="#m8f56eb066b" x="373.660465" y="48.767483" style="fill: #1f77b4; stroke: #1f77b4"/>
     <use xlink:href="#m8f56eb066b" x="377.23524" y="40.24625" style="fill: #1f77b4; stroke: #1f77b4"/>
     <use xlink:href="#m8f56eb066b" x="380.810015" y="26.328933" style="fill: #1f77b4; stroke: #1f77b4"/>
     <use xlink:href="#m8f56eb066b" x="384.38479" y="21.323892" style="fill: #1f77b4; stroke: #1f77b4"/>
     <use xlink:href="#m8f56eb066b" x="387.959564" y="21.306308" style="fill: #1f77b4; stroke: #1f77b4"/>
     <use xlink:href="#m8f56eb066b" x="391.534339" y="17.307318" style="fill: #1f77b4; stroke: #1f77b4"/>
     <use xlink:href="#m8f56eb066b" x="395.109114" y="13.659273" style="fill: #1f77b4; stroke: #1f77b4"/>
     <use xlink:href="#m8f56eb066b" x="398.683889" y="13.965149" style="fill: #1f77b4; stroke: #1f77b4"/>
     <use xlink:href="#m8f56eb066b" x="402.258663" y="13.918775" style="fill: #1f77b4; stroke: #1f77b4"/>
     <use xlink:href="#m8f56eb066b" x="405.833438" y="15.574295" style="fill: #1f77b4; stroke: #1f77b4"/>
     <use xlink:href="#m8f56eb066b" x="409.408213" y="22.774339" style="fill: #1f77b4; stroke: #1f77b4"/>
     <use xlink:href="#m8f56eb066b" x="412.982988" y="27.848045" style="fill: #1f77b4; stroke: #1f77b4"/>
     <use xlink:href="#m8f56eb066b" x="416.557763" y="27.815043" style="fill: #1f77b4; stroke: #1f77b4"/>
     <use xlink:href="#m8f56eb066b" x="420.132537" y="35.343133" style="fill: #1f77b4; stroke: #1f77b4"/>
     <use xlink:href="#m8f56eb066b" x="423.707312" y="52.166718" style="fill: #1f77b4; stroke: #1f77b4"/>
    </g>
   </g>
   <g id="patch_3">
    <path d="M 69.804609 279.580711 
L 69.804609 13.468711 
" style="fill: none; stroke: #262626; stroke-width: 1.875; stroke-linejoin: miter; stroke-linecap: square"/>
   </g>
   <g id="patch_4">
    <path d="M 426.924609 279.580711 
L 426.924609 13.468711 
" style="fill: none; stroke: #262626; stroke-width: 1.875; stroke-linejoin: miter; stroke-linecap: square"/>
   </g>
   <g id="patch_5">
    <path d="M 69.804609 279.580711 
L 426.924609 279.580711 
" style="fill: none; stroke: #262626; stroke-width: 1.875; stroke-linejoin: miter; stroke-linecap: square"/>
   </g>
   <g id="patch_6">
    <path d="M 69.804609 13.468711 
L 426.924609 13.468711 
" style="fill: none; stroke: #262626; stroke-width: 1.875; stroke-linejoin: miter; stroke-linecap: square"/>
   </g>
  </g>
 </g>
 <defs>
  <clipPath id="p7dda0dccb7">
   <rect x="69.804609" y="13.468711" width="357.12" height="266.112"/>
  </clipPath>
 </defs>
</svg>
